<svg width="29" height="20" viewBox="0 0 29 20" fill="none" xmlns="http://www.w3.org/2000/svg">
<path d="M28.7609 8.61283L15.2043 0.0662974C15.0569 -0.0220991 14.8802 -0.0220991 14.7328 0.0662974L1.1762 8.61283C0.969804 8.73062 0.91101 8.99601 1.0288 9.20219L1.58917 10.0569C1.70696 10.2633 1.97235 10.3221 2.17853 10.2043L5.47921 8.11181V19.1044C5.47921 19.3402 5.656 19.517 5.89179 19.517H6.92337C7.15917 19.517 7.33595 19.3402 7.33595 19.1044V6.93298L14.9689 2.1294L22.6018 6.93319V19.1046C22.6018 19.3404 22.7786 19.5172 23.0144 19.5172H24.046C24.2818 19.5172 24.4586 19.3404 24.4586 19.1046V8.11202L27.7592 10.2046C27.9656 10.3223 28.2308 10.2636 28.3486 10.0572L28.9086 9.20261C29.0266 8.99622 28.9676 8.73083 28.7612 8.61304L28.7609 8.61283Z" fill="#151E2D"/>
<path d="M17.0321 7.93421C17.0321 9.07346 16.1084 9.99711 14.9692 9.99711C13.8299 9.99711 12.9062 9.07346 12.9062 7.93421C12.9062 6.79474 13.8299 5.87109 14.9692 5.87109C16.1084 5.87109 17.0321 6.79474 17.0321 7.93421" fill="#049B5A"/>
<path d="M13.8188 16.7176L14.4378 15.7157L13.76 15.3031C13.6126 15.2147 13.4948 15.0673 13.4064 14.9199L12.5518 16.305C12.4341 16.4818 12.4341 16.6882 12.4928 16.865L12.9938 18.1912L12.8464 18.2502C12.4928 18.3386 12.2864 18.6922 12.4044 19.0459C12.4928 19.3407 12.758 19.5175 13.0234 19.5175C13.0824 19.5175 13.1412 19.5175 13.2002 19.4881L14.0548 19.2523C14.2316 19.1933 14.379 19.0755 14.4674 18.9281C14.5558 18.7514 14.5558 18.5746 14.4968 18.3978L13.8188 16.7176Z" fill="#049B5A"/>
<path d="M17.0901 18.2506L16.9133 18.1916L17.4436 16.7475C17.5026 16.5411 17.5026 16.3349 17.3846 16.1581L16.5301 14.8613C16.4417 15.0087 16.3237 15.1561 16.1469 15.2445L15.4986 15.6571L16.0879 16.5706L15.4396 18.3684C15.3806 18.5451 15.3806 18.7219 15.469 18.8987C15.5574 19.0461 15.7048 19.1639 15.8815 19.2229L16.7361 19.4587C16.7951 19.4881 16.8539 19.4881 16.9129 19.4881C17.2077 19.4881 17.4433 19.3113 17.5319 19.0165C17.6501 18.7219 17.4437 18.3684 17.0901 18.2505L17.0901 18.2506Z" fill="#049B5A"/>
<path d="M18.0618 12.2681L16.7357 10.765C16.6179 10.6176 16.4409 10.5586 16.2347 10.5586H13.6708C13.494 10.5586 13.3172 10.647 13.1698 10.765L11.8731 12.2385L10.7827 13.4173C10.5469 13.6824 10.5469 14.095 10.8121 14.3308C10.9299 14.4486 11.1069 14.5076 11.2541 14.5076C11.4309 14.5076 11.6077 14.4486 11.7257 14.3012L12.816 13.0928L13.2876 12.5625L13.376 14.2718H16.4409L16.5293 12.5625L17.0302 13.1225L18.1206 14.3012C18.2384 14.4486 18.4154 14.5076 18.5922 14.5076C18.7396 14.5076 18.9164 14.4486 19.0342 14.3308C19.2994 14.095 19.329 13.6824 19.0636 13.4173L18.0618 12.2681Z" fill="#049B5A"/>
</svg>
