<svg width="28" height="27" viewBox="0 0 28 27" fill="none" xmlns="http://www.w3.org/2000/svg">
<path d="M27.6587 12.2931H21.9152L22.5298 8.59158C22.5435 8.48914 22.5161 8.39356 22.4546 8.31146C22.3862 8.23623 22.2975 8.18844 22.1951 8.18844H21.1366C21.0547 7.32115 20.6996 6.50162 20.0713 5.87322C20.0029 5.80485 19.9347 5.7502 19.8732 5.69555C19.8732 5.69555 19.8664 5.69555 19.8664 5.68869L19.8595 5.68183C19.8389 5.66811 19.8186 5.66811 19.8049 5.66125C19.7843 5.65439 19.7639 5.64067 19.7434 5.63404C19.7161 5.62718 19.6956 5.62718 19.6681 5.62718H19.6135C19.5863 5.63404 19.5657 5.6409 19.5382 5.65439C19.5245 5.66125 19.5042 5.66811 19.4904 5.67497C19.4699 5.68869 19.4564 5.70904 19.4358 5.72276C19.4221 5.73648 19.4086 5.74334 19.3949 5.75683C19.3949 5.75683 19.3949 5.76369 19.388 5.76369L19.3811 5.77055C18.9442 6.42611 18.2065 6.81556 17.4142 6.81556C16.6219 6.81556 15.8844 6.42638 15.4472 5.77055C15.4403 5.76369 15.4335 5.76369 15.4335 5.75683C15.4266 5.74997 15.4266 5.74311 15.4198 5.73625C15.4129 5.72253 15.3925 5.71567 15.3857 5.70904C15.3651 5.69532 15.3516 5.67497 15.331 5.66811C15.3105 5.65439 15.297 5.65439 15.2764 5.64753C15.2558 5.64067 15.2355 5.63381 15.208 5.62695H15.1465C15.1259 5.62695 15.1056 5.62695 15.0781 5.63381C15.0575 5.64067 15.0372 5.64753 15.0166 5.66102C15.0029 5.66788 14.9894 5.66788 14.9757 5.6816C14.9688 5.68846 14.9688 5.69532 14.962 5.69532C14.9551 5.70218 14.9482 5.70218 14.9414 5.70904C14.2175 6.34429 13.7668 7.23195 13.6849 8.18822L12.6342 8.18868C12.5317 8.18868 12.4362 8.22961 12.3747 8.3117C12.3063 8.38693 12.2791 8.48937 12.2994 8.59181L12.9141 12.2934L0.341391 12.2931C0.150231 12.2931 0 12.4434 0 12.6345V15.3664C0 15.5575 0.150231 15.7078 0.341391 15.7078H1.3658V24.9274C1.3658 25.87 2.13065 26.6348 3.07322 26.6348H24.927C25.8696 26.6348 26.6344 25.87 26.6344 24.9274L26.6342 15.7078H27.6586C27.8498 15.7078 28 15.5575 28 15.3664V12.6345C28.0002 12.4434 27.85 12.2931 27.6586 12.2931L27.6587 12.2931ZM15.134 6.49494C15.7077 7.1368 16.5341 7.5125 17.4149 7.5125C18.296 7.5125 19.1292 7.1368 19.6958 6.48809C20.1262 6.97309 20.3992 7.56026 20.4676 8.19551H14.3621C14.4307 7.56026 14.7106 6.97307 15.1341 6.49494H15.134ZM14.0003 8.87853H21.7928L21.226 12.2931H13.6044L13.0375 8.87853H14.0003ZM25.9519 24.9272C25.9519 25.494 25.4944 25.9516 24.9275 25.9516H3.07313C2.50627 25.9516 2.04872 25.494 2.04872 24.9272V15.7075H25.9513L25.9519 24.9272ZM27.3177 15.025H0.683161V12.9761H27.3177V15.025Z" fill="#151E2D"/>
<path d="M17.1769 10.8252C17.2041 10.8592 17.2453 10.8867 17.2862 10.9004C17.3271 10.921 17.3749 10.9276 17.4158 10.9276C17.5046 10.9276 17.5935 10.8935 17.6548 10.8252C17.6889 10.798 17.7163 10.7568 17.73 10.7159C17.7506 10.6749 17.7572 10.634 17.7572 10.5862C17.7572 10.4975 17.7232 10.4085 17.6548 10.3473C17.5592 10.2517 17.409 10.2176 17.286 10.272C17.245 10.2858 17.2041 10.313 17.1767 10.3473C17.1426 10.3745 17.1152 10.4156 17.1014 10.4566C17.0809 10.4975 17.0742 10.5453 17.0742 10.5862C17.0742 10.634 17.0811 10.6749 17.1014 10.7159C17.1154 10.7568 17.1428 10.7977 17.1769 10.8252L17.1769 10.8252Z" fill="#151E2D"/>
<path d="M7.85308 9.37871e-06C5.36043 9.37871e-06 3.41406 1.05164 3.41406 2.39021C3.41406 3.72879 5.36043 4.78041 7.85308 4.78041C8.86378 4.78041 9.83351 4.59611 10.6053 4.26821L11.8209 4.75983C11.8618 4.77355 11.9027 4.78704 11.9505 4.78704C12.053 4.78704 12.1485 4.74611 12.2169 4.66402C12.3125 4.54786 12.3193 4.38391 12.2375 4.26112L11.7593 3.54403C12.101 3.18938 12.2921 2.79996 12.2921 2.3902C12.2921 1.05163 10.3458 0 7.85312 0L7.85308 9.37871e-06ZM11.104 3.21658C11.0902 3.2303 11.0834 3.2438 11.0699 3.25752C11.0562 3.27809 11.0358 3.29159 11.0221 3.31217C11.0084 3.33274 11.0084 3.3531 11.0015 3.36682C10.9947 3.3874 10.9809 3.40775 10.9809 3.42833V3.48984C10.9809 3.51042 10.9809 3.53763 10.9878 3.55821C10.9947 3.57879 11.0015 3.59914 11.015 3.61972C11.0219 3.6403 11.0287 3.65379 11.0356 3.67437L11.0628 3.7153L10.7486 3.58565C10.7214 3.57193 10.694 3.57879 10.6734 3.57879C10.6528 3.57193 10.6324 3.57193 10.6187 3.57193C10.5982 3.57193 10.5709 3.57879 10.5504 3.58565C10.5231 3.59251 10.5026 3.58565 10.4751 3.59937C9.76489 3.92728 8.84293 4.10471 7.86635 4.10471C5.65357 4.10471 4.11011 3.20335 4.11011 2.39729C4.11011 1.59147 5.65357 0.689873 7.86635 0.689873C10.0791 0.689873 11.6226 1.59123 11.6226 2.39729C11.6093 2.74532 11.3361 3.03231 11.104 3.21658L11.104 3.21658Z" fill="#049B5A"/>
<path d="M6.35627 2.07672C6.31534 2.09044 6.27441 2.11765 6.24697 2.15195C6.17883 2.21347 6.14453 2.30219 6.14453 2.3909C6.14453 2.47962 6.1786 2.56858 6.24697 2.62985C6.27418 2.66392 6.31534 2.69137 6.35627 2.70509C6.3972 2.72567 6.43836 2.73253 6.48616 2.73253C6.57488 2.73253 6.66383 2.69846 6.72511 2.63009C6.79348 2.56857 6.82755 2.47986 6.82755 2.39091C6.82755 2.30219 6.79348 2.21323 6.72511 2.15196C6.62953 2.05638 6.4793 2.02231 6.35627 2.07673V2.07672Z" fill="#151E2D"/>
<path d="M8.09207 2.15192C7.96905 2.02228 7.73696 2.02228 7.61393 2.15192C7.57986 2.17913 7.55242 2.2203 7.5387 2.26123C7.51858 2.30216 7.51172 2.34308 7.51172 2.39087C7.51172 2.47959 7.54579 2.56855 7.61416 2.62982C7.64137 2.66389 7.68253 2.69134 7.72346 2.70506C7.76439 2.72564 7.81218 2.7325 7.85311 2.7325C7.89404 2.7325 7.94183 2.72564 7.98276 2.70529C8.02369 2.69157 8.06462 2.66435 8.09206 2.63005C8.16043 2.56854 8.1945 2.47982 8.1945 2.39087C8.1945 2.34308 8.18764 2.30216 8.16729 2.26123C8.15357 2.2203 8.12636 2.17914 8.09206 2.15192L8.09207 2.15192Z" fill="#151E2D"/>
<path d="M9.45948 2.15196C9.37077 2.05638 9.21367 2.02231 9.09065 2.07673C9.04972 2.09045 9.00879 2.11766 8.98135 2.15196C8.94728 2.17917 8.91984 2.22033 8.90612 2.26126C8.88577 2.30219 8.87891 2.34998 8.87891 2.39091C8.87891 2.47963 8.91298 2.56858 8.98135 2.62986C9.00856 2.66393 9.04972 2.69137 9.09065 2.70509C9.13158 2.72567 9.17251 2.73253 9.2203 2.73253C9.30902 2.73253 9.39797 2.69846 9.45925 2.63009C9.52762 2.56858 9.56192 2.47986 9.56192 2.39091C9.56192 2.34998 9.55506 2.30219 9.53471 2.26126C9.52076 2.22033 9.49355 2.17917 9.45947 2.15196L9.45948 2.15196Z" fill="#151E2D"/>
<path d="M17.4131 6.14643C19.1068 6.14643 20.4863 4.76694 20.4863 3.07322C20.4863 1.37949 19.1068 0 17.4131 0C15.7193 0 14.3398 1.37949 14.3398 3.07322C14.3398 4.76694 15.7193 6.14643 17.4131 6.14643ZM17.4131 0.683015C18.7311 0.683015 19.8033 1.75519 19.8033 3.07322C19.8033 4.39125 18.7311 5.46342 17.4131 5.46342C16.095 5.46342 15.0229 4.39125 15.0229 3.07322C15.0229 1.75519 16.095 0.683015 17.4131 0.683015Z" fill="#049B5A"/>
</svg>
