<svg width="28" height="29" viewBox="0 0 28 29" fill="none" xmlns="http://www.w3.org/2000/svg">
<path d="M25.2048 23.8747C25.2048 23.2494 24.7654 22.7262 24.1801 22.5918L24.1799 19.1991H25.7478C26.2502 19.1991 26.6588 18.7905 26.6588 18.2883V17.3289H27.2998L28 14.598H24.7301L25.4303 17.3289H26.0727V18.2883C26.0727 18.4674 25.9269 18.613 25.7478 18.613H24.1799V12.3537L24.8208 12.3539L25.521 9.62305H22.2512L22.9514 12.3539H23.5937V18.6132H22.0228C21.8437 18.6132 21.6979 18.4676 21.6979 18.2885V18.0001L22.339 17.9999L23.0393 15.269H19.7694L20.4696 17.9999H21.112V18.2883C21.112 18.7905 21.5206 19.1991 22.0229 19.1991H23.5939V22.5914C23.0078 22.7252 22.5675 23.2487 22.5675 23.8746V27.5439H18.6148V25.7557L16.5784 25.7559V27.5441L11.4241 27.5439V25.7557H9.38767V27.5439H5.43519V23.8746C5.43519 23.2487 4.99713 22.7251 4.41166 22.5914L4.41146 19.1991H5.97959C6.48174 19.1991 6.89036 18.7905 6.89036 18.2883V17.3289H7.53014L8.23339 14.598H4.96053L5.66378 17.3289H6.30453V18.2883C6.30453 18.4674 6.15891 18.613 5.97985 18.613H4.41171V12.3537L5.05128 12.3539L5.75454 9.62305H2.48167L3.18493 12.3539H3.82568V18.6132H2.25472C2.07566 18.6132 1.93004 18.4676 1.93004 18.2885V18.0001L2.56961 17.9999L3.27287 15.269H0L0.703255 17.9999H1.344V18.2883C1.344 18.7905 1.75262 19.1991 2.25477 19.1991H3.82573V22.5916C3.23867 22.7258 2.80123 23.2489 2.80123 23.8746V27.5439H0.22982V28.13H27.7724V27.5439H25.2044L25.2048 23.8747Z" fill="#151E2D"/>
<path d="M4.97656 14.0118H8.2202L7.8128 12.7285H5.38378L4.97656 14.0118Z" fill="#049B5A"/>
<path d="M2.49609 9.03525H5.73973L5.33253 7.75195H2.90352L2.49609 9.03525Z" fill="#049B5A"/>
<path d="M2.85184 13.3984H0.422831L0.015625 14.6817H3.25926L2.85184 13.3984Z" fill="#049B5A"/>
<path d="M24.7461 14.0118H27.9867L27.5823 12.7285H25.1533L24.7461 14.0118Z" fill="#049B5A"/>
<path d="M19.7812 14.6817H23.0219L22.6175 13.3984H20.1885L19.7812 14.6817Z" fill="#049B5A"/>
<path d="M25.099 7.75391H22.673L22.2656 9.0372H25.5062L25.099 7.75391Z" fill="#049B5A"/>
<path d="M19.7657 19.6115V19.0254H8.23468V19.6115H10.1115V20.3099H8.23468V20.896H10.1115V21.5946H8.23468V22.1807H10.1115V23.2173L7.45312 23.2171V25.1686H20.5476V23.2171H17.8888V22.1805H19.7654V21.5944H17.8888V20.8958H19.7654V20.3097H17.8888V19.6113L19.7657 19.6115ZM17.3031 23.217H10.6976V22.1805H17.3031V23.217ZM17.3031 21.5944H10.6976V20.8957H17.3031V21.5944ZM17.3031 20.3099H10.6976V19.6114H17.3031V20.3099Z" fill="#151E2D"/>
<path d="M14.0003 11.3541C15.146 11.3541 16.0748 10.4223 16.0748 9.27957C16.0748 8.13385 15.146 7.20508 14.0003 7.20508C12.8576 7.20508 11.9258 8.13385 11.9258 9.27957C11.9258 10.4223 12.8576 11.3541 14.0003 11.3541Z" fill="#049B5A"/>
<path d="M13.707 4.83398H14.2931V6.24306H13.707V4.83398Z" fill="#049B5A"/>
<path d="M11.3668 5.68555L12.2726 6.76497L11.8237 7.14153L10.918 6.06211L11.3668 5.68555Z" fill="#049B5A"/>
<path d="M10.9582 9.04058L9.57031 8.79602L9.67206 8.21875L11.0599 8.46331L10.9582 9.04058Z" fill="#049B5A"/>
<path d="M11.5174 11.0525L10.2969 11.7571L10.0039 11.2496L11.2243 10.5449L11.5174 11.0525Z" fill="#049B5A"/>
<path d="M12.207 13.3574L12.6891 12.0332L13.2398 12.2337L12.7576 13.5579L12.207 13.3574Z" fill="#049B5A"/>
<path d="M14.7656 12.2337L15.3162 12.0332L15.7985 13.3572L15.2479 13.5577L14.7656 12.2337Z" fill="#049B5A"/>
<path d="M17.7048 11.7571L16.4844 11.0525L16.7774 10.5449L17.9978 11.2496L17.7048 11.7571Z" fill="#049B5A"/>
<path d="M16.9414 8.46331L18.329 8.21875L18.4308 8.79602L17.0432 9.04058L16.9414 8.46331Z" fill="#049B5A"/>
<path d="M16.636 5.68555L17.0849 6.06211L16.1793 7.14173L15.7305 6.76517L16.636 5.68555Z" fill="#049B5A"/>
<path d="M10.5198 4.24876C10.5198 3.1277 9.54198 2.1995 8.4277 2.2738C8.22259 0.975891 7.10912 0 5.7583 0C4.4105 0 3.29401 0.97866 3.08614 2.27657C1.97846 2.23851 1.04688 3.13504 1.04688 4.2485V4.54154H10.5197L10.5198 4.24876Z" fill="#151E2D"/>
<path d="M19.6049 6.56206H20.191C20.191 5.75687 20.8461 5.10171 21.6513 5.10171V4.51562C20.9084 4.51562 20.2565 4.91362 19.8979 5.50772C19.5394 4.91363 18.8876 4.51562 18.1445 4.51562V5.10171C18.9497 5.10171 19.6049 5.75687 19.6049 6.56206V6.56206Z" fill="#151E2D"/>
<path d="M19.6469 1.70958H20.233C20.233 1.16759 20.6739 0.726714 21.2157 0.726714V0.140625C20.6905 0.140625 20.2248 0.400011 19.94 0.797424C19.6549 0.400032 19.1892 0.140625 18.6641 0.140625V0.726714C19.2058 0.726714 19.6469 1.16757 19.6469 1.70958Z" fill="#151E2D"/>
<path d="M24.7204 5.03302H25.3065C25.3065 4.05856 26.0992 3.26578 27.0735 3.26578V2.67969C26.1878 2.67969 25.4148 3.17162 25.0134 3.89648C24.612 3.17158 23.8389 2.67969 22.9531 2.67969V3.26578C23.9276 3.26578 24.7204 4.05856 24.7204 5.03302Z" fill="#151E2D"/>
</svg>
