<svg width="26" height="29" viewBox="0 0 26 29" fill="none" xmlns="http://www.w3.org/2000/svg">
<path d="M12.914 12.9139C14.8059 12.9139 16.3396 11.3801 16.3396 9.48818C16.3396 7.59623 14.8059 6.0625 12.914 6.0625C11.022 6.0625 9.48828 7.59623 9.48828 9.48818C9.48828 11.3801 11.022 12.9139 12.914 12.9139Z" fill="#049B5A"/>
<path d="M25.6486 3.33784H25.0338V0.351351C25.0338 0.175676 24.8581 0 24.6824 0H21.2568C20.9932 0 20.9054 0.175676 20.9054 0.351351V3.25H19.7635C19.6757 3.16216 19.5 3.07432 19.4122 2.98649C19.1486 2.81081 18.7973 2.72297 18.5338 2.72297C18.0068 2.72297 17.5676 2.89865 17.2162 3.25H8.95946C8.60811 2.89865 8.16892 2.72297 7.64189 2.72297C7.29054 2.72297 7.02703 2.81081 6.67568 2.98649C6.5 3.07432 6.41216 3.16216 6.23649 3.33784H5.0946V0.351351C5.0946 0.175676 5.00676 0 4.74324 0H1.40541C1.14189 0 0.966216 0.175676 0.966216 0.351351V3.25H0.351351C0.175676 3.25 0 3.42568 0 3.60135C0 3.77703 0.175676 3.9527 0.351351 3.9527H0.966216V6.85135C0.966216 7.02703 1.14189 7.2027 1.31757 7.2027H4.74324C5.00676 7.29054 5.0946 7.2027 5.0946 6.93919V4.04054H5.70946C5.53378 4.47973 5.53378 5.00676 5.70946 5.53378L8.78378 12.9122C8.87162 13.1757 8.95946 13.527 8.95946 13.8784V26.4392C8.95946 27.4054 9.75 28.1081 10.6284 28.1081C11.5946 28.1081 12.2973 27.3176 12.2973 26.4392V22.0473C12.2973 21.6959 12.5608 21.4324 12.9122 21.4324C13.2635 21.4324 13.527 21.6959 13.527 22.0473V26.4392C13.527 27.4054 14.3176 28.1081 15.1959 28.1081C16.1622 28.1081 16.8649 27.3176 16.8649 26.4392V13.8784C16.8649 13.527 16.9527 13.2635 17.0405 12.9122L20.1149 5.53378C20.2905 5.00676 20.2905 4.47973 20.1149 4.04054H20.9054V6.93919C20.9054 7.11487 21.0811 7.29054 21.2568 7.29054H24.6824C24.8581 7.29054 25.0338 7.11487 25.0338 6.93919V4.04054H25.6486C25.8243 4.04054 26 3.86486 26 3.68919C26 3.51351 25.8243 3.33784 25.6486 3.33784V3.33784ZM1.75676 0.702703H2.72297V6.58784H1.75676V0.702703ZM4.39189 6.58784H3.42568V0.702703H4.39189V6.58784V6.58784ZM13 6.41216C14.7568 6.41216 16.1622 7.81757 16.1622 9.48649C16.1622 11.2432 14.7568 12.5608 13 12.5608C11.2432 12.5608 9.83784 11.1554 9.83784 9.48649C9.83784 7.81757 11.2432 6.41216 13 6.41216ZM15.3716 6.5C14.6689 5.97297 13.8784 5.62162 13 5.62162C12.1216 5.62162 11.2432 5.97297 10.5405 6.5L9.31081 4.04054H16.5135L15.3716 6.5ZM19.5878 5.27027L16.5135 12.6486C16.3378 13 16.25 13.4392 16.25 13.8784V26.4392C16.25 26.9662 15.8108 27.4054 15.2838 27.4054C14.7568 27.4054 14.3176 26.9662 14.3176 26.4392V22.0473C14.3176 21.3446 13.7027 20.7297 13 20.7297C12.2973 20.7297 11.6824 21.3446 11.6824 22.0473V26.4392C11.6824 26.9662 11.2432 27.4054 10.7162 27.4054C10.1892 27.4054 9.75 26.9662 9.75 26.4392V13.8784C9.75 13.4392 9.66216 13.0878 9.48649 12.6486L6.41216 5.27027C6.14865 4.65541 6.41216 4.04054 6.93919 3.68919C7.2027 3.60135 7.37838 3.51351 7.55406 3.51351C7.99324 3.51351 8.43243 3.77703 8.69595 4.21622L10.0135 7.02703C9.48649 7.72973 9.13514 8.52027 9.13514 9.48649C9.13514 11.5946 10.8919 13.3514 13 13.3514C15.1081 13.3514 16.8649 11.5946 16.8649 9.48649C16.8649 8.52027 16.5135 7.72973 15.9865 7.02703L17.3041 4.21622C17.4797 3.77703 17.9189 3.51351 18.4459 3.51351C18.6216 3.51351 18.8851 3.60135 19.0608 3.68919C19.5878 3.9527 19.7635 4.65541 19.5878 5.27027ZM21.6081 0.702703H22.5743V6.58784H21.6081V0.702703ZM24.2432 6.58784H23.277V0.702703H24.2432V6.58784Z" fill="#151E2D"/>
</svg>
