<svg width="40" height="40" viewBox="0 0 40 40" fill="none" xmlns="http://www.w3.org/2000/svg">
<rect width="40" height="40" fill="white"/>
<path d="M9.51371 13.5357L11.2648 12.8353L11.8777 12.6602L12.4906 12.8353L13.5413 13.0104C13.5413 13.0104 14.1542 13.098 14.2418 13.2731C14.3293 13.4482 15.0298 13.9735 15.1173 14.0611C15.2049 14.1486 16.4307 14.674 16.4307 14.674L24.0481 14.4989C24.0481 14.4989 25.3615 13.6233 25.5366 13.5357C25.7117 13.4482 25.7993 13.1855 26.1495 13.0104C26.4997 12.8353 27.9882 12.6602 28.1633 12.6602C28.3384 12.6602 29.0389 12.3975 29.5642 12.8353C30.1771 13.3606 30.7025 13.7109 30.79 13.7984C30.8776 13.886 32.3661 18.1763 32.3661 18.1763L33.4167 22.379L33.1541 24.1301L32.5412 25.1808C32.5412 25.1808 31.1403 26.0564 31.0527 26.0564C30.9651 26.0564 29.3016 26.3191 29.3016 26.3191C29.3016 26.3191 29.0389 26.2315 28.426 25.8813C27.9007 25.531 27.9007 25.4435 27.7255 25.1808C27.4629 25.0057 27.3753 24.8306 27.2002 24.6555C27.0251 24.4804 27.2002 24.3928 27.0251 24.2177C26.85 23.955 26.7624 23.955 26.5873 23.6923C26.4122 23.4297 26.3246 23.3421 26.2371 23.167C26.1495 22.9919 25.9744 23.167 26.062 22.8168C26.1495 22.4666 26.062 22.2914 26.062 22.2914V22.1163C26.062 22.1163 25.9744 21.8537 25.7993 21.8537C25.6242 21.8537 25.0988 22.2914 25.0113 22.2914C24.9237 22.2914 24.661 22.9043 24.3984 22.9919C24.1357 23.0794 23.5228 23.3421 23.4353 23.3421C23.3477 23.3421 22.3846 23.2546 22.3846 23.2546C22.3846 23.2546 22.297 23.3421 21.8592 22.9919C21.4214 22.6417 21.3339 22.5541 21.1588 22.2914C20.9837 22.0288 20.8961 21.8537 20.8085 21.7661C20.721 21.6785 20.4583 21.4159 20.1081 21.4159C19.7579 21.4159 18.8823 21.7661 18.8823 21.7661L18.7072 22.0288C18.7072 22.0288 18.6196 22.379 18.5321 22.5541C18.4445 22.7292 18.0943 22.9919 18.0067 23.0794C17.9192 23.167 17.4814 23.4297 17.2187 23.4297H16.3431C16.3431 23.4297 15.9929 23.3421 15.8178 23.2546C15.6427 23.167 15.6427 23.2546 15.4676 22.9919C15.2925 22.7292 15.1173 22.7292 15.0298 22.5541C14.9422 22.379 14.5045 22.2039 14.5045 22.2039C14.3293 22.1163 13.9791 22.2039 13.9791 22.2039L13.5413 23.2546L13.016 24.5679C13.016 24.5679 12.6658 25.1808 12.4906 25.2684C12.3155 25.4435 11.44 25.9688 11.44 25.9688L10.0391 26.4066C10.0391 26.4066 8.90081 26.2315 8.81325 26.2315C8.7257 26.2315 7.85013 25.7062 7.76257 25.7937C7.67501 25.7937 6.62433 24.8306 6.62433 24.8306L6.44922 23.3421L7.32479 19.4896L8.63814 15.462L9.51371 13.5357Z" fill="#049B5A"/>
<path d="M33.8522 21.7653L32.1011 15.3737C31.7509 14.1479 30.8753 13.0972 29.7371 12.4843C28.5988 11.8714 27.2855 11.8714 26.0597 12.3092C25.1841 12.6594 24.3961 13.1848 23.8708 13.9728H16.0782C15.6404 13.2723 14.8524 12.6594 13.9768 12.3968C12.8386 11.959 11.4377 11.959 10.2995 12.5719C9.16121 13.1848 8.28564 14.1479 7.93541 15.4612L6.18428 21.8529C5.57138 23.9543 6.5345 25.9681 8.3732 26.6685C8.81098 26.8436 9.33632 26.9312 9.86167 26.9312C11.4377 26.9312 13.0137 26.0556 13.7142 24.6547L14.5897 22.9036C15.1151 23.604 15.9906 24.0418 16.8662 24.0418C18.092 24.0418 19.2303 23.2538 19.5805 22.028H20.5436C20.8938 23.1662 22.0321 24.0418 23.2579 24.0418C24.1334 24.0418 25.009 23.604 25.5343 22.9036L26.4099 24.7423C26.8477 25.6178 27.6357 26.3183 28.5113 26.7561C29.4744 27.1063 30.4375 27.1063 31.4007 26.7561C32.3638 26.4059 33.1518 25.7054 33.5896 24.8298C34.0274 23.7791 34.1149 22.816 33.8522 21.7653V21.7653ZM32.5389 24.2169C32.1887 24.8298 31.6633 25.3552 30.9629 25.6178C30.2624 25.8805 29.562 25.8805 28.8615 25.6178C28.1611 25.3552 27.6357 24.8298 27.373 24.2169L26.1472 21.6778C25.9721 21.4151 25.7095 21.24 25.4468 21.24C25.1841 21.24 24.9214 21.4151 24.7463 21.7653C24.4837 22.4658 23.8708 22.9036 23.1703 22.9036C22.3823 22.9036 21.6818 22.2907 21.5067 21.5027C21.4192 21.1524 21.1565 20.8898 20.8063 20.8898H19.1427C18.7925 20.8898 18.4422 21.1524 18.4422 21.5027C18.2671 22.2907 17.5667 22.9036 16.7787 22.9036C16.0782 22.9036 15.3777 22.4658 15.2026 21.7653C15.1151 21.5027 14.8524 21.24 14.5022 21.24C14.2395 21.24 13.8893 21.4151 13.8017 21.6778L12.5759 24.2169C11.963 25.5303 10.1243 26.2307 8.72343 25.7054C7.49763 25.0925 6.88473 23.6916 7.32252 22.1156L9.07365 15.7239C9.33632 14.7608 9.94922 14.0603 10.8248 13.6226C11.3501 13.3599 11.8755 13.1848 12.4008 13.1848C12.8386 13.1848 13.1888 13.2723 13.6266 13.4474C14.3271 13.7101 14.8524 14.1479 15.2026 14.6732C15.3777 15.0235 15.8155 15.1986 16.1658 15.1986H23.9583C24.3085 15.1986 24.6588 15.0235 24.9214 14.6732C25.3592 14.0603 25.8846 13.7101 26.4975 13.4474C27.373 13.0972 28.4237 13.1848 29.2117 13.6226C30.0873 14.0603 30.7002 14.8483 30.9629 15.7239L32.714 22.1156C32.9767 22.816 32.8891 23.5165 32.5389 24.2169V24.2169ZM27.7233 15.0235C28.1611 15.0235 28.4237 15.3737 28.4237 15.7239C28.4237 16.0741 28.0735 16.4244 27.7233 16.4244C27.2855 16.4244 27.0228 16.0741 27.0228 15.7239C27.0228 15.3737 27.373 15.0235 27.7233 15.0235ZM27.7233 18.4382C28.1611 18.4382 28.4237 18.7884 28.4237 19.1386C28.4237 19.5764 28.0735 19.8391 27.7233 19.8391C27.2855 19.8391 27.0228 19.4889 27.0228 19.1386C27.0228 18.7884 27.373 18.4382 27.7233 18.4382V18.4382ZM25.9721 16.687C26.4099 16.687 26.6726 17.0373 26.6726 17.3875C26.6726 17.8253 26.3224 18.088 25.9721 18.088C25.6219 18.088 25.2717 17.8253 25.2717 17.4751C25.2717 17.0373 25.6219 16.687 25.9721 16.687V16.687ZM29.4744 16.687C29.9122 16.687 30.1749 17.0373 30.1749 17.3875C30.1749 17.8253 29.8246 18.088 29.4744 18.088C29.0366 18.088 28.7739 17.7377 28.7739 17.3875C28.6864 17.0373 29.0366 16.687 29.4744 16.687ZM14.0644 16.8622H13.0137V15.8115C13.0137 15.4612 12.751 15.1986 12.4008 15.1986C12.0506 15.1986 11.7879 15.4612 11.7879 15.8115V16.8622H10.9123C10.5621 16.8622 10.2995 17.1248 10.2995 17.4751C10.2995 17.8253 10.5621 18.088 10.9123 18.088H11.963V19.1386C11.963 19.4889 12.2257 19.7515 12.5759 19.7515C12.9262 19.7515 13.1888 19.4889 13.1888 19.1386V18.088H14.2395C14.5897 18.088 14.8524 17.8253 14.8524 17.4751C14.6773 17.1248 14.4146 16.8622 14.0644 16.8622V16.8622ZM18.7049 16.8622H18.092C17.7418 16.8622 17.4791 17.1248 17.4791 17.4751C17.4791 17.8253 17.7418 18.088 18.092 18.088H18.7049C19.0551 18.088 19.3178 17.8253 19.3178 17.4751C19.3178 17.1248 19.0551 16.8622 18.7049 16.8622ZM21.9445 16.8622H21.3316C20.9814 16.8622 20.7187 17.1248 20.7187 17.4751C20.7187 17.8253 20.9814 18.088 21.3316 18.088H21.9445C22.2947 18.088 22.5574 17.8253 22.5574 17.4751C22.5574 17.1248 22.2947 16.8622 21.9445 16.8622ZM16.7787 19.9266C16.1658 19.9266 15.6404 20.452 15.6404 21.0649C15.6404 21.6778 16.1658 22.2031 16.7787 22.2031C17.3916 22.2031 17.9169 21.6778 17.9169 21.0649C18.0045 20.452 17.4791 19.9266 16.7787 19.9266ZM16.7787 21.4151C16.6035 21.4151 16.516 21.24 16.516 21.1524C16.516 20.9773 16.6911 20.8898 16.7787 20.8898C16.9538 20.8898 17.0413 21.0649 17.0413 21.1524C17.1289 21.24 16.9538 21.4151 16.7787 21.4151ZM23.2579 19.9266C22.645 19.9266 22.1196 20.452 22.1196 21.0649C22.1196 21.6778 22.645 22.2031 23.2579 22.2031C23.8708 22.2031 24.3961 21.6778 24.3961 21.0649C24.3961 20.452 23.8708 19.9266 23.2579 19.9266ZM23.2579 21.4151C23.0828 21.4151 22.9952 21.24 22.9952 21.1524C22.9952 20.9773 23.1703 20.8898 23.2579 20.8898C23.3454 20.8898 23.5205 21.0649 23.5205 21.1524C23.5205 21.24 23.433 21.4151 23.2579 21.4151Z" fill="#151E2D"/>
</svg>
