<svg width="28" height="29" viewBox="0 0 28 29" fill="none" xmlns="http://www.w3.org/2000/svg">
<path d="M17.0205 2.57811H18.5347C18.7129 2.57811 18.8599 2.4311 18.8599 2.25292C18.8599 2.07475 18.7129 1.92773 18.5347 1.92773H17.0205C16.8423 1.92773 16.6953 2.07475 16.6953 2.25292C16.6953 2.4311 16.8378 2.57811 17.0205 2.57811Z" fill="#049B5A"/>
<path d="M2.24644 17.2715C2.30877 17.3384 2.38894 17.3695 2.47814 17.3695C2.56282 17.3695 2.64729 17.3338 2.70983 17.2715C2.741 17.2403 2.76765 17.2047 2.78549 17.169C2.79882 17.129 2.80784 17.0888 2.80784 17.0488C2.80784 17.0043 2.79902 16.9642 2.78118 16.9242C2.76786 16.8842 2.7412 16.8485 2.70983 16.8174C2.59398 16.7015 2.37131 16.7015 2.24665 16.8174C2.21549 16.853 2.19314 16.8887 2.1753 16.9242C2.15725 16.9553 2.14844 16.9998 2.14844 17.0445C2.14844 17.089 2.15725 17.1292 2.17509 17.1647C2.19293 17.2004 2.21528 17.2403 2.24645 17.2715L2.24644 17.2715Z" fill="#049B5A"/>
<path d="M27.6753 27.7328H25.8492V11.3881C26.847 10.9116 27.5416 9.89603 27.5416 8.71586V6.67617C27.5416 6.66736 27.5371 6.65834 27.5371 6.64952C27.5371 6.63168 27.5326 6.61384 27.5283 6.59601C27.5195 6.56033 27.5059 6.53367 27.4883 6.50251C27.4838 6.4937 27.4795 6.48016 27.4705 6.47135L24.0546 2.0489C23.9922 1.96873 23.8987 1.92424 23.7962 1.92424H20.0463C19.8681 1.92424 19.7211 2.07125 19.7211 2.24943C19.7211 2.4276 19.8681 2.57461 20.0463 2.57461H23.6359L26.5486 6.34687L1.44767 6.34646L4.36041 2.5742H15.833C16.0112 2.5742 16.1582 2.42719 16.1582 2.24902C16.1582 2.07084 16.0112 1.92383 15.833 1.92383L4.20452 1.92403C4.102 1.92403 4.0085 1.96853 3.94617 2.0487L0.530265 6.47114C0.521448 6.48447 0.512427 6.4978 0.507916 6.51112C0.499099 6.52896 0.490078 6.54229 0.485567 6.56013C0.47675 6.59129 0.467729 6.61795 0.467729 6.64911C0.467729 6.65793 0.463218 6.66244 0.463218 6.66695V8.70664C0.463218 9.88681 1.16238 10.9024 2.16461 11.3789C2.16461 11.3922 2.15579 11.4055 2.15579 11.4189V15.868C2.15579 16.0461 2.30281 16.1932 2.48098 16.1932C2.65916 16.1932 2.80617 16.0461 2.80617 15.868V13.7569H25.1992V27.7327H17.8061V17.7078C17.8061 17.5296 17.6591 17.3826 17.4809 17.3826H10.5197C10.3416 17.3826 10.1946 17.5296 10.1946 17.7078V27.7327H2.80141V18.1975C2.80141 18.0193 2.6544 17.8723 2.47623 17.8723C2.29805 17.8725 2.15124 18.015 2.15124 18.1975V27.7327H0.325188C0.147013 27.7327 0 27.8797 0 28.0579C0 28.2361 0.147013 28.3831 0.325188 28.3831H27.6748C27.853 28.3831 28 28.2361 28 28.0579C27.9998 27.8797 27.853 27.7327 27.6748 27.7327L27.6753 27.7328ZM24.58 11.027C23.3018 11.027 22.2596 9.99377 22.2553 8.7199V8.71539V7.00518H26.8871V8.71539C26.8869 9.98931 25.8537 11.027 24.58 11.027V11.027ZM6.39561 8.7156V7.00539H11.0274V8.7156C11.0274 9.98931 9.98966 11.027 8.71601 11.027C7.43778 11.027 6.39561 9.98925 6.39561 8.7156V8.7156ZM11.6818 7.00539H16.3136V8.7156C16.3136 9.98931 15.2759 11.027 14.0022 11.027C12.7195 11.027 11.6775 9.98925 11.6775 8.7156L11.6773 7.00539H11.6818ZM16.968 7.00539H21.5998V8.7156V8.72011C21.5998 9.99382 20.5621 11.0272 19.2884 11.0272C18.0057 11.0272 16.9637 9.98946 16.9637 8.7158L16.9635 7.00538L16.968 7.00539ZM1.10887 8.7156V7.00539H5.74064V8.7156V8.72011C5.74064 9.99382 4.70293 11.0272 3.42927 11.0272C2.15105 11.027 1.10887 9.9893 1.10887 8.7156V8.7156ZM2.80123 13.1202V11.6105C3.00606 11.655 3.21541 11.6773 3.43357 11.6773C4.58262 11.6773 5.58029 11.0181 6.07012 10.0561C6.56447 11.0136 7.56218 11.6773 8.72 11.6773C9.86904 11.6773 10.8667 11.0181 11.3565 10.0561C11.8509 11.0136 12.8486 11.6773 14.0064 11.6773C15.1555 11.6773 16.1531 11.0181 16.643 10.0561C17.1373 11.0136 18.135 11.6773 19.2928 11.6773C20.4419 11.6773 21.4396 11.0181 21.9294 10.0561C22.4237 11.0136 23.4214 11.6773 24.5793 11.6773C24.7886 11.6773 24.9979 11.655 25.194 11.6105V13.1159L2.80092 13.1157L2.80123 13.1202ZM10.8442 18.0327H17.1461V27.7327H10.8442V18.0327Z" fill="#151E2D"/>
<path d="M4.51269 21.2264H8.47197C8.65014 21.2264 8.79715 21.0794 8.79715 20.9012V17.708C8.79715 17.5298 8.65014 17.3828 8.47197 17.3828H4.51269C4.33451 17.3828 4.1875 17.5298 4.1875 17.708V20.9012C4.1875 21.0794 4.33451 21.2264 4.51269 21.2264ZM4.83767 18.0332H8.14676V20.5762H4.83767V18.0332Z" fill="#049B5A"/>
<path d="M4.1875 26.077C4.1875 26.2552 4.33451 26.4022 4.51269 26.4022H8.47197C8.65014 26.4022 8.79715 26.2552 8.79715 26.077V22.8838C8.79715 22.7056 8.65014 22.5586 8.47197 22.5586H4.51269C4.33451 22.5586 4.1875 22.7056 4.1875 22.8838V26.077ZM4.83769 23.209H8.14678V25.752H4.83769V23.209Z" fill="#049B5A"/>
<path d="M19.5128 21.2264H23.4721C23.6502 21.2264 23.7973 21.0794 23.7973 20.9012V17.708C23.7973 17.5298 23.6502 17.3828 23.4721 17.3828H19.5128C19.3346 17.3828 19.1876 17.5298 19.1876 17.708V20.9012C19.1831 21.0794 19.3301 21.2264 19.5128 21.2264ZM19.838 18.0332H23.1426V20.5717H19.838V18.0332Z" fill="#049B5A"/>
<path d="M19.1836 26.077C19.1836 26.2552 19.3306 26.4022 19.5088 26.4022H23.4681C23.6462 26.4022 23.7932 26.2552 23.7932 26.077V22.8838C23.7932 22.7056 23.6462 22.5586 23.4681 22.5586H19.5088C19.3306 22.5586 19.1836 22.7056 19.1836 22.8838V26.077ZM19.8385 23.209H23.1476V25.752H19.8385V23.209Z" fill="#049B5A"/>
<path d="M12.4933 22.4908C12.4933 22.7563 12.278 22.9718 12.0123 22.9718C11.7467 22.9718 11.5312 22.7563 11.5312 22.4908C11.5312 22.2251 11.7467 22.0098 12.0123 22.0098C12.278 22.0098 12.4933 22.2251 12.4933 22.4908Z" fill="#049B5A"/>
<path d="M1.26651 2.1817C1.70734 2.1817 2.06819 1.82535 2.06819 1.38901C2.06819 0.948179 1.70753 0.591797 1.26651 0.591797C0.825687 0.591797 0.464844 0.948153 0.464844 1.38901C0.469355 1.82532 0.825708 2.1817 1.26651 2.1817ZM1.26651 1.02814C1.47134 1.02814 1.6362 1.18848 1.6362 1.3888C1.6362 1.58482 1.47135 1.74516 1.26651 1.74516C1.06619 1.74516 0.901346 1.58482 0.901346 1.3888C0.901346 1.19299 1.06619 1.02814 1.26651 1.02814V1.02814Z" fill="#049B5A"/>
<path d="M26.3164 24.9317C26.3164 25.3592 26.6682 25.7111 27.1048 25.7111C27.5368 25.7111 27.8887 25.3637 27.8887 24.9317C27.8887 24.5042 27.5368 24.1523 27.1048 24.1523C26.6683 24.1523 26.3164 24.5042 26.3164 24.9317ZM27.4566 24.9317C27.4566 25.1232 27.3008 25.2747 27.1048 25.2747C26.9045 25.2747 26.7484 25.1232 26.7484 24.9317C26.7484 24.7402 26.9043 24.5887 27.1048 24.5887C27.2963 24.5887 27.4566 24.7447 27.4566 24.9317Z" fill="#049B5A"/>
<path d="M26.0267 1.62146H26.6548C26.7749 1.62146 26.8729 1.52345 26.8729 1.40331C26.8729 1.28295 26.7749 1.18945 26.6548 1.18945H26.0267C25.9066 1.18945 25.8086 1.28746 25.8086 1.40761C25.8086 1.52797 25.9066 1.62146 26.0267 1.62146Z" fill="#049B5A"/>
<path d="M24.2768 1.62186H24.9048C25.0249 1.62186 25.1229 1.52385 25.1229 1.4037C25.1229 1.28355 25.0249 1.18555 24.9048 1.18555H24.2768C24.1566 1.18555 24.0586 1.28356 24.0586 1.4037C24.0584 1.52837 24.1564 1.62186 24.2768 1.62186Z" fill="#049B5A"/>
<path d="M25.4642 2.81044C25.5844 2.81044 25.6824 2.71243 25.6824 2.59229V1.96425C25.6824 1.8441 25.5844 1.74609 25.4642 1.74609C25.3441 1.74609 25.2461 1.8441 25.2461 1.96425V2.59229C25.2461 2.71244 25.3441 2.81044 25.4642 2.81044V2.81044Z" fill="#049B5A"/>
<path d="M25.4642 1.06435C25.5844 1.06435 25.6824 0.966341 25.6824 0.846193V0.218157C25.6824 0.0980031 25.5844 0 25.4642 0C25.3441 0 25.2461 0.0980083 25.2461 0.218157V0.846193C25.2461 0.966346 25.3441 1.06435 25.4642 1.06435V1.06435Z" fill="#049B5A"/>
<path d="M0.940735 15.0275C1.37275 15.0275 1.72461 14.6801 1.72461 14.2481C1.72461 13.8206 1.37277 13.4688 0.940735 13.4688C0.504212 13.4688 0.152344 13.8161 0.152344 14.2481C0.152549 14.6801 0.5087 15.0275 0.940735 15.0275ZM0.940735 13.9051C1.13224 13.9051 1.29258 14.0609 1.29258 14.2481C1.29258 14.4351 1.13675 14.5955 0.940735 14.5955C0.740415 14.5955 0.584379 14.4439 0.584379 14.2524C0.58889 14.0566 0.744924 13.9051 0.940735 13.9051Z" fill="#049B5A"/>
</svg>
