<svg width="29" height="29" viewBox="0 0 29 29" fill="none" xmlns="http://www.w3.org/2000/svg">
<path d="M0.715143 10.8153C0.359007 10.9043 0.136422 11.2605 0.203223 11.6166C0.269998 11.9282 0.5371 12.1508 0.848744 12.1508C0.893261 12.1508 0.937778 12.1508 0.982295 12.1286C7.3037 10.7263 11.822 9.16816 14.4264 7.47651C16.541 6.09648 16.8526 4.91681 16.8526 4.36032C16.8526 2.26803 15.0274 1.24414 10.3755 0.709932C9.99713 0.665415 9.68554 0.932517 9.64097 1.28865C9.5964 1.64479 9.86356 1.97864 10.2197 2.02321C15.517 2.62416 15.517 3.73714 15.517 4.33809C15.517 4.47164 15.3611 7.58783 0.714939 10.8152L0.715143 10.8153Z" fill="#151E2D"/>
<path d="M17.9414 0.732523C17.5853 0.643489 17.2292 0.866074 17.1178 1.22221C17.0288 1.57835 17.2514 1.93448 17.6075 2.02352C25.7096 4.11581 26.4885 7.9664 26.7338 9.23526C27.2457 11.8395 25.6876 15.8238 16.2501 27.6877C16.0276 27.977 16.0721 28.3999 16.3614 28.6225C16.495 28.7116 16.6285 28.7783 16.7843 28.7783C16.9847 28.7783 17.185 28.6893 17.3186 28.5335C27.1571 16.1578 28.6925 12.1289 28.0693 8.9908C27.2457 4.96199 23.9514 2.26899 17.9418 0.733032L17.9414 0.732523Z" fill="#151E2D"/>
<path d="M3.25328 21.1442C3.58716 21.0106 3.94327 20.8548 4.29941 20.699C4.63328 20.5432 4.78909 20.1648 4.63328 19.8086C4.47747 19.4748 4.09908 19.319 3.74294 19.4748C3.38681 19.6306 3.05296 19.7641 2.74129 19.8977C2.40741 20.0312 2.22937 20.4319 2.38515 20.7657C2.49644 21.0328 2.74129 21.1886 3.00839 21.1886C3.09742 21.1886 3.18646 21.1664 3.25323 21.1441L3.25328 21.1442Z" fill="#049B5A"/>
<path d="M10.6424 15.9572C9.90789 16.3801 9.15115 16.803 8.39431 17.2259C8.06044 17.404 7.94914 17.8046 8.12721 18.1385C8.2385 18.3611 8.48335 18.4947 8.70593 18.4947C8.81722 18.4947 8.92852 18.4724 9.01755 18.4056C9.79657 17.9827 10.5756 17.5598 11.3101 17.1147C11.6218 16.9366 11.7331 16.5137 11.555 16.202C11.3769 15.8682 10.9763 15.7569 10.6424 15.9572L10.6424 15.9572Z" fill="#049B5A"/>
<path d="M17.8538 11.549C17.609 11.2819 17.186 11.2597 16.9189 11.5045C16.3402 12.0387 15.6725 12.5729 14.9379 13.1071C14.6486 13.3297 14.5818 13.7527 14.8044 14.042C14.9379 14.2201 15.1382 14.3091 15.3386 14.3091C15.4721 14.3091 15.6279 14.2646 15.7392 14.1755C16.496 13.6191 17.186 13.0404 17.8093 12.4839C18.0764 12.2613 18.0986 11.8384 17.8538 11.549Z" fill="#049B5A"/>
<path d="M20.658 8.65588C20.9028 8.65588 21.1477 8.52232 21.259 8.27748C21.437 7.87683 21.5928 7.49846 21.6819 7.12004C21.7709 6.7639 21.5706 6.40777 21.2144 6.29645C20.8583 6.20742 20.5022 6.40774 20.3908 6.76388C20.3241 7.05324 20.1905 7.36483 20.057 7.6765C19.9012 8.01038 20.0347 8.41106 20.3686 8.56684C20.4576 8.63362 20.5467 8.65588 20.6579 8.65588H20.658Z" fill="#049B5A"/>
</svg>
