<svg width="28" height="28" viewBox="0 0 28 28" fill="none" xmlns="http://www.w3.org/2000/svg">
<path d="M14.0883 12.8621C15.0065 12.8621 15.7508 11.9219 15.7508 10.7621C15.7508 9.60231 15.0065 8.66211 14.0883 8.66211C13.1701 8.66211 12.4258 9.60231 12.4258 10.7621C12.4258 11.9219 13.1701 12.8621 14.0883 12.8621Z" fill="#049B5A"/>
<path d="M2.3625 14.6992C2.3625 15.0492 2.1 15.3117 1.75 15.3117H0.6125C0.2625 15.3117 0 15.0492 0 14.6992C0 14.3492 0.2625 14.0867 0.6125 14.0867H1.75C2.1 14.0867 2.3625 14.3492 2.3625 14.6992ZM8.3125 20.1242C8.3125 20.2992 8.3125 20.4742 8.4875 20.5617C8.6625 20.6492 8.75 20.7367 8.925 20.7367H10.15C10.5 20.7367 10.7625 20.4742 10.7625 20.1242C10.7625 19.7742 10.5 19.5117 10.15 19.5117H9.7125C10.2375 17.9367 11.8125 16.6242 14 16.0992C16.1875 16.6242 17.85 17.9367 18.2875 19.5117H17.85C17.5 19.5117 17.2375 19.7742 17.2375 20.1242C17.2375 20.4742 17.5 20.7367 17.85 20.7367H19.075C19.25 20.7367 19.425 20.6492 19.5125 20.5617C19.6 20.4742 19.6875 20.2992 19.6875 20.1242C19.6 18.8992 18.9875 17.7617 17.9375 16.7992C16.975 15.9242 15.6625 15.2242 14.175 14.8742H13.9125C12.425 15.2242 11.1125 15.8367 10.15 16.7992C9.0125 17.7617 8.4875 18.8992 8.3125 20.1242V20.1242ZM22.6625 6.64922C22.8375 6.64922 23.0125 6.56172 23.1 6.47422L23.8875 5.68672C24.15 5.42422 24.15 5.07422 23.8875 4.81172C23.625 4.54922 23.275 4.54922 23.0125 4.81172L22.225 5.59922C21.9625 5.86172 21.9625 6.21172 22.225 6.47422C22.3125 6.56172 22.4875 6.64922 22.6625 6.64922ZM14 3.06172C14.35 3.06172 14.6125 2.79922 14.6125 2.44922V1.31172C14.6125 0.961719 14.35 0.699219 14 0.699219C13.65 0.699219 13.3875 0.961719 13.3875 1.31172V2.44922C13.3875 2.79922 13.65 3.06172 14 3.06172ZM4.9 6.47422C4.9875 6.56172 5.1625 6.64922 5.3375 6.64922C5.5125 6.64922 5.6875 6.56172 5.775 6.47422C6.0375 6.21172 6.0375 5.86172 5.775 5.59922L4.9875 4.81172C4.725 4.54922 4.375 4.54922 4.1125 4.81172C3.85 5.07422 3.85 5.42422 4.1125 5.68672L4.9 6.47422ZM12.6 24.8492C12.25 24.8492 11.9875 25.1117 11.9875 25.4617V26.0742H7.4375C6.65 26.0742 5.95 25.3742 5.95 24.5867C5.95 23.7992 6.65 23.0992 7.4375 23.0992H11.9C12.25 23.0992 12.5125 22.8367 12.5125 22.4867C12.5125 22.1367 12.25 21.8742 11.9 21.8742H7.4375C5.95 21.8742 4.725 23.0992 4.725 24.5867C4.725 26.0742 5.95 27.2992 7.4375 27.2992H12.6C12.95 27.2992 13.2125 27.0367 13.2125 26.6867V25.4617C13.2125 25.1117 12.95 24.8492 12.6 24.8492V24.8492ZM27.3875 14.0867H26.25C25.9 14.0867 25.6375 14.3492 25.6375 14.6992C25.6375 15.0492 25.9 15.3117 26.25 15.3117H27.3875C27.7375 15.3117 28 15.0492 28 14.6992C28 14.3492 27.7375 14.0867 27.3875 14.0867V14.0867ZM14 4.63672C8.4 4.63672 3.7625 9.18672 3.7625 14.8742C3.7625 16.7992 4.2875 18.7242 5.3375 20.3867C5.425 20.5617 5.6875 20.6492 5.8625 20.6492C5.95 20.6492 6.125 20.6492 6.2125 20.5617C6.475 20.3867 6.5625 19.9492 6.3875 19.6867C5.425 18.2867 4.9875 16.5367 4.9875 14.8742C4.9875 9.97422 9.0125 5.94922 13.9125 5.94922C18.8125 5.94922 22.8375 9.97422 22.8375 14.8742C22.8375 16.6242 22.3125 18.2867 21.4375 19.6867C21.2625 19.9492 21.35 20.3867 21.6125 20.5617C21.875 20.7367 22.3125 20.6492 22.4875 20.3867C23.5375 18.7242 24.0625 16.7992 24.0625 14.8742C24.2375 9.18672 19.6 4.63672 14 4.63672V4.63672ZM13.825 13.6492C12.6 13.2117 11.725 12.0742 11.725 10.7617C11.725 9.44922 12.6 8.22422 13.825 7.87422H14.175C15.4 8.31172 16.275 9.44922 16.275 10.7617C16.275 12.0742 15.4 13.2992 14.175 13.6492H14H13.825ZM14 12.4242C14.6125 12.1617 15.05 11.4617 15.05 10.7617C15.05 10.0617 14.6125 9.44922 14 9.09922C13.3875 9.36172 12.95 10.0617 12.95 10.7617C12.95 11.4617 13.3875 12.0742 14 12.4242ZM20.5625 21.8742H16.1C15.75 21.8742 15.4875 22.1367 15.4875 22.4867C15.4875 22.8367 15.75 23.0992 16.1 23.0992H20.5625C21.35 23.0992 22.05 23.7992 22.05 24.5867C22.05 25.3742 21.35 26.0742 20.5625 26.0742H16.1V25.4617C16.1 25.1117 15.8375 24.8492 15.4875 24.8492C15.1375 24.8492 14.875 25.1117 14.875 25.4617V26.6867C14.875 27.0367 15.1375 27.2992 15.4875 27.2992H20.65C22.1375 27.2992 23.3625 26.0742 23.3625 24.5867C23.3625 23.0992 22.1375 21.8742 20.5625 21.8742ZM14 17.4117C13.65 17.4117 13.3875 17.6742 13.3875 18.0242V22.4867C13.3875 22.8367 13.65 23.0992 14 23.0992C14.35 23.0992 14.6125 22.8367 14.6125 22.4867V18.0242C14.6125 17.7617 14.35 17.4117 14 17.4117V17.4117Z" fill="#151E2D"/>
</svg>
