<?xml version="1.0" encoding="UTF-8"?>
<svg version="1.1" xmlns="http://www.w3.org/2000/svg" width="48" height="48">
<path d="M0 0 C0.65830811 -0.00191345 1.31661621 -0.0038269 1.99487305 -0.00579834 C3.3868854 -0.0071595 4.77891047 -0.00346783 6.17089844 0.00488281 C8.30432589 0.015584 10.43691131 0.00498594 12.5703125 -0.0078125 C13.92187686 -0.00649089 15.2734407 -0.00392847 16.625 0 C18.47544922 0.00338379 18.47544922 0.00338379 20.36328125 0.00683594 C23.3125 0.265625 23.3125 0.265625 25.3125 2.265625 C25.5078125 4.6484375 25.5078125 4.6484375 25.4375 7.390625 C25.41945312 8.30070313 25.40140625 9.21078125 25.3828125 10.1484375 C25.35960937 10.84710938 25.33640625 11.54578125 25.3125 12.265625 C26.70275391 12.24822266 26.70275391 12.24822266 28.12109375 12.23046875 C29.31863281 12.22144531 30.51617187 12.21242188 31.75 12.203125 C32.94496094 12.19152344 34.13992187 12.17992187 35.37109375 12.16796875 C38.3125 12.265625 38.3125 12.265625 39.3125 13.265625 C39.39950342 14.90035382 39.41951063 16.53876555 39.41015625 18.17578125 C39.40693359 19.16513672 39.40371094 20.15449219 39.40039062 21.17382812 C39.38782227 22.73520508 39.38782227 22.73520508 39.375 24.328125 C39.37048828 25.37291016 39.36597656 26.41769531 39.36132812 27.49414062 C39.34949913 30.0846916 39.33301689 32.67513059 39.3125 35.265625 C38.66796875 35.54148438 38.0234375 35.81734375 37.359375 36.1015625 C35.02479528 37.11320389 35.02479528 37.11320389 34.5625 39.890625 C34.48 40.674375 34.3975 41.458125 34.3125 42.265625 C28.63796267 41.63512085 28.63796267 41.63512085 26.984375 39.7578125 C24.56282016 37.59651822 22.57016356 37.82556019 19.375 37.703125 C15.46469544 37.54322407 12.69707454 37.29636972 9.3125 35.265625 C9.3125 32.955625 9.3125 30.645625 9.3125 28.265625 C9.9725 28.265625 10.6325 28.265625 11.3125 28.265625 C11.6425 29.915625 11.9725 31.565625 12.3125 33.265625 C13.27671875 33.30300781 14.2409375 33.34039062 15.234375 33.37890625 C17.12929688 33.47751953 17.12929688 33.47751953 19.0625 33.578125 C20.94195313 33.66513672 20.94195313 33.66513672 22.859375 33.75390625 C26.34326463 34.27018401 27.79139796 34.8909506 30.3125 37.265625 C30.6425 36.275625 30.9725 35.285625 31.3125 34.265625 C33.7875 33.770625 33.7875 33.770625 36.3125 33.265625 C36.3125 27.325625 36.3125 21.385625 36.3125 15.265625 C30.8675 14.770625 30.8675 14.770625 25.3125 14.265625 C25.35375 15.874375 25.395 17.483125 25.4375 19.140625 C25.5078125 21.8828125 25.5078125 21.8828125 25.3125 24.265625 C22.5057268 27.0723982 20.60281291 26.46532119 16.6875 26.515625 C10.61762539 26.83280082 7.33483003 27.78261536 2.9609375 31.98828125 C1.3125 33.265625 1.3125 33.265625 -2.6875 33.265625 C-2.6875 30.955625 -2.6875 28.645625 -2.6875 26.265625 C-3.491875 26.12125 -4.29625 25.976875 -5.125 25.828125 C-7.6875 25.265625 -7.6875 25.265625 -8.6875 24.265625 C-8.93906269 20.62663325 -8.87272226 16.97478827 -8.875 13.328125 C-8.88724609 12.30009766 -8.89949219 11.27207031 -8.91210938 10.21289062 C-8.91404297 9.23126953 -8.91597656 8.24964844 -8.91796875 7.23828125 C-8.92207764 6.33343994 -8.92618652 5.42859863 -8.93041992 4.49633789 C-8.35273324 -0.80850959 -4.35439076 0.00796257 0 0 Z M-5.6875 3.265625 C-7.26674842 6.42412185 -6.83066514 9.8021378 -6.8125 13.265625 C-6.81636719 14.00296875 -6.82023438 14.7403125 -6.82421875 15.5 C-6.90167412 19.51284141 -6.90167412 19.51284141 -5.6875 23.265625 C-3.16016765 23.92117619 -3.16016765 23.92117619 -0.6875 24.265625 C-0.6875 26.245625 -0.6875 28.225625 -0.6875 30.265625 C0.199375 29.46125 1.08625 28.656875 2 27.828125 C6.49682169 24.55015436 11.00208043 24.58270843 16.421875 24.40625 C19.38133523 24.39254469 19.38133523 24.39254469 22.3125 23.265625 C23.89174842 20.10712815 23.45566514 16.7291122 23.4375 13.265625 C23.44136719 12.52828125 23.44523437 11.7909375 23.44921875 11.03125 C23.52667412 7.01840859 23.52667412 7.01840859 22.3125 3.265625 C19.35336588 2.27924696 17.39851102 2.1367373 14.3125 2.1328125 C13.343125 2.13152344 12.37375 2.13023438 11.375 2.12890625 C10.364375 2.13277344 9.35375 2.13664063 8.3125 2.140625 C6.7965625 2.13482422 6.7965625 2.13482422 5.25 2.12890625 C4.280625 2.13019531 3.31125 2.13148437 2.3125 2.1328125 C1.425625 2.13394043 0.53875 2.13506836 -0.375 2.13623047 C-2.84751285 2.1729994 -2.84751285 2.1729994 -5.6875 3.265625 Z " fill="#FFFFFF" transform="translate(8.6875,3.734375)"/>
</svg>