<?xml version="1.0" encoding="UTF-8"?>
<svg version="1.1" xmlns="http://www.w3.org/2000/svg" width="48" height="48">
<path d="M0 0 C1.81242052 -0.02687279 3.62495233 -0.04633715 5.4375 -0.0625 C6.44683594 -0.07410156 7.45617187 -0.08570313 8.49609375 -0.09765625 C11 0 11 0 12 1 C13.07939253 5.98181168 13.81294708 9.68879503 11.0625 14.125 C10.381875 14.74375 9.70125 15.3625 9 16 C12.17421695 21.172798 15.11268859 25.03756286 21 27 C21.474375 26.319375 21.94875 25.63875 22.4375 24.9375 C25.41032982 22.68975062 26.06431941 22.79760261 29.625 23.1875 C32.04188816 23.55284356 33.81070327 23.90535163 36 25 C36 28.63 36 32.26 36 36 C26.3383536 36.55209408 18.36253076 34.51222884 10.59375 28.5390625 C4.91096202 23.05127215 0.33863699 15.24511065 -0.17578125 7.27734375 C-0.18605456 4.84256906 -0.13448441 2.43068123 0 0 Z " fill="#FFFFFF" transform="translate(6,6)"/>
</svg>