<svg width="22" height="24" viewBox="0 0 22 24" fill="none" xmlns="http://www.w3.org/2000/svg">
<path fill-rule="evenodd" clip-rule="evenodd" d="M10.828 20.1776V21.3736C10.828 22.3328 10.35 23.1608 9.51928 23.6404C9.11963 23.8711 8.67356 23.9998 8.21109 24C7.7482 24.0003 7.30228 23.8713 6.90234 23.6404L1.58409 20.5699C0.753328 20.0903 0.275391 19.2624 0.275391 18.3031V2.61741C0.275391 1.17408 1.44952 0 2.8928 0H14.6055C16.0489 0 17.2231 1.17398 17.2231 2.61741V5.92392C17.2231 6.39825 16.838 6.78338 16.3636 6.78338C15.8892 6.78338 15.5044 6.3983 15.5044 5.92392V2.61741C15.5044 2.1218 15.1011 1.71853 14.6055 1.71853H4.34212L9.51928 4.70808C10.3497 5.18761 10.828 6.01542 10.828 6.97434V18.4589H14.6055C15.1011 18.4589 15.5044 18.0558 15.5044 17.5602V14.6616C15.5044 14.187 15.8889 13.8022 16.3636 13.8022C16.8382 13.8022 17.2231 14.187 17.2231 14.6616V17.5602C17.2231 19.0036 16.0489 20.1776 14.6055 20.1776H10.828ZM18.7913 10.948L17.8448 11.8945C17.5092 12.2301 17.5093 12.7741 17.8448 13.1097C18.0063 13.2713 18.224 13.3612 18.4524 13.3612C18.6811 13.3612 18.8985 13.2716 19.0603 13.1097L21.4734 10.6962C21.8089 10.3607 21.8089 9.81694 21.4734 9.48141L19.0603 7.06828C18.7247 6.73266 18.1806 6.7328 17.8448 7.06823C17.5094 7.40348 17.5095 7.94775 17.8448 8.28309L18.7913 9.22931H12.4509C11.9761 9.22931 11.5917 9.61406 11.5917 10.0888C11.5917 10.5636 11.9762 10.9481 12.4509 10.9481H18.7913V10.948Z" fill="white"/>
</svg>