<?xml version="1.0" encoding="UTF-8"?>
<svg version="1.1" xmlns="http://www.w3.org/2000/svg" width="48" height="48">
<path d="M0 0 C0.99 0.33 1.98 0.66 3 1 C3 2.98 3 4.96 3 7 C11.58 7 20.16 7 29 7 C29 5.02 29 3.04 29 1 C30.32 1 31.64 1 33 1 C33.02689216 2.47906892 33.04634621 3.95827483 33.0625 5.4375 C33.07410156 6.26121094 33.08570313 7.08492187 33.09765625 7.93359375 C33 10 33 10 32 11 C29.63601532 11.1007812 27.30188689 11.13973215 24.9375 11.1328125 C24.23101318 11.13376923 23.52452637 11.13472595 22.79663086 11.13571167 C21.30029207 11.13639333 19.80395033 11.13454005 18.30761719 11.13037109 C16.00969843 11.12502257 13.71197514 11.13031651 11.4140625 11.13671875 C9.96354123 11.13605797 8.51302009 11.1347768 7.0625 11.1328125 C6.0250061 11.13584885 6.0250061 11.13584885 4.96655273 11.13894653 C0.11495224 11.11495224 0.11495224 11.11495224 -1 10 C-1.0979057 8.50261876 -1.12974864 7.00057108 -1.125 5.5 C-1.12757813 4.6853125 -1.13015625 3.870625 -1.1328125 3.03125 C-1 1 -1 1 0 0 Z " fill="#FFFFFF" transform="translate(8,30)"/>
<path d="M0 0 C0.99 0.33 1.98 0.66 3 1 C3.33 5.62 3.66 10.24 4 15 C5.32 14.67 6.64 14.34 8 14 C7.61094382 16.72339328 6.93262433 18.08903214 5.25 20.3125 C3 22 3 22 0.5 22 C-2.47790338 20.80883865 -4.01091369 19.50477535 -6 17 C-6 16.01 -6 15.02 -6 14 C-4.68 14.33 -3.36 14.66 -2 15 C-1.93941406 14.00097656 -1.87882812 13.00195312 -1.81640625 11.97265625 C-1.73261719 10.68230469 -1.64882813 9.39195313 -1.5625 8.0625 C-1.48128906 6.77472656 -1.40007813 5.48695312 -1.31640625 4.16015625 C-1 1 -1 1 0 0 Z " fill="#FFFFFF" transform="translate(23,7)"/>
</svg>