<svg width="20" height="24" viewBox="0 0 20 24" fill="none" xmlns="http://www.w3.org/2000/svg">
<path d="M14.3738 10.452C14.4355 10.3655 14.4595 10.31 14.469 10.2802C14.4181 10.2534 14.3506 10.1987 13.9828 10.1987C13.7738 10.1987 13.5115 10.2078 13.2334 10.2434C13.5706 10.5029 13.653 10.634 13.8735 10.634C13.97 10.6345 14.2464 10.6303 14.3738 10.452Z" fill="white"/>
<path d="M6.49718 13.5038C6.55884 13.4844 6.91884 13.3201 7.5896 12.082C6.70491 12.579 6.34491 12.9874 6.31925 13.2175C6.3147 13.2555 6.30353 13.3557 6.49718 13.5038Z" fill="white"/>
<path d="M6.78135 18.9757C6.72259 18.8946 6.64066 18.8267 6.53515 18.7721C6.42963 18.7175 6.28977 18.6902 6.11639 18.6902H5.60742V20.342H6.22977C6.31253 20.342 6.39446 20.328 6.47597 20.2994C6.55708 20.2713 6.63156 20.2249 6.69942 20.1608C6.76728 20.0967 6.8219 20.0073 6.86328 19.8923C6.90466 19.7772 6.92535 19.6349 6.92535 19.4652C6.92535 19.3974 6.91584 19.3187 6.89722 19.2306C6.87818 19.142 6.8397 19.0572 6.78135 18.9757Z" fill="white"/>
<path d="M10.1416 7.52026C9.84536 8.54399 9.45516 9.64923 9.03516 10.6502C9.89998 10.3146 10.8401 10.0216 11.7232 9.81433C11.1645 9.16551 10.6063 8.3553 10.1416 7.52026Z" fill="white"/>
<path d="M0.689453 16.9656V23.1725C0.689453 23.59 1.19428 24.0001 1.70863 24.0001H18.291C18.8053 24.0001 19.3101 23.59 19.3101 23.1725V16.9656H0.689453ZM7.474 20.0396C7.40242 20.2114 7.30228 20.3558 7.174 20.4725C7.04573 20.5892 6.89097 20.6798 6.71014 20.7439C6.52931 20.8081 6.32904 20.8399 6.11056 20.8399H5.60697V22.3449H4.92794V18.1755H6.12711C6.30421 18.1755 6.47966 18.2036 6.65304 18.2603C6.82642 18.317 6.982 18.4019 7.1198 18.5148C7.25759 18.6278 7.3689 18.7647 7.45373 18.9249C7.53856 19.085 7.58118 19.265 7.58118 19.4653C7.58159 19.6767 7.54559 19.8679 7.474 20.0396ZM11.6351 21.0241C11.5615 21.2674 11.4683 21.471 11.355 21.6352C11.2416 21.7995 11.1146 21.9286 10.973 22.023C10.8315 22.1173 10.695 22.1876 10.563 22.2352C10.431 22.2824 10.3101 22.3126 10.2009 22.3259C10.0917 22.3383 10.0106 22.3449 9.95759 22.3449H8.37938V18.1755H9.63525C9.98614 18.1755 10.2944 18.2314 10.5601 18.3423C10.8257 18.4532 11.0467 18.6017 11.2221 18.7863C11.3976 18.9708 11.5283 19.1814 11.6152 19.4169C11.7017 19.6523 11.7452 19.8948 11.7452 20.1439C11.7456 20.4874 11.7088 20.7807 11.6351 21.0241ZM15.3377 18.6903H13.4198V20.0028H15.1623V20.4667H13.4198V22.3449H12.7296V18.1755H15.3377V18.6903Z" fill="white"/>
<path d="M10.7303 19.1511C10.6116 19.0133 10.4502 18.902 10.2466 18.8171C10.043 18.7323 9.77901 18.6897 9.45459 18.6897H9.05859V21.8465H9.73183C10.192 21.8465 10.5238 21.6996 10.7274 21.4054C10.931 21.1112 11.0328 20.685 11.0328 20.1268C11.0328 19.9534 11.0121 19.7817 10.9707 19.612C10.9289 19.4424 10.8491 19.2889 10.7303 19.1511Z" fill="white"/>
<path d="M9.8906 4.01885C9.85004 4.03251 9.34025 4.74589 9.93032 5.34961C10.323 4.47444 9.90839 4.01306 9.8906 4.01885Z" fill="white"/>
<path fill-rule="evenodd" clip-rule="evenodd" d="M19.3105 16.1379V5.78394C19.3105 5.46704 19.2725 5.23242 19.083 5.04248L14.2676 0.227539C14.123 0.083252 13.9229 0 13.7178 0H1.70898C1.21777 0 0.689453 0.37915 0.689453 1.21069V16.1379H19.3105ZM13.6787 1.19653C13.7461 1.17993 13.8223 1.19507 13.8799 1.25293L18.0576 5.43018C18.1914 5.56421 18.0967 5.79321 17.9072 5.79321H13.5166V1.40308C13.5166 1.29565 13.5898 1.21851 13.6787 1.19653ZM7.49805 10.9927C7.75488 10.9927 8 11.0981 8.17969 11.2861C8.35938 11.4707 8.46289 11.7185 8.46875 11.9788C8.47168 12.2117 8.39746 12.4272 8.27051 12.5999C8.09375 12.8386 7.81543 12.9949 7.49805 13H7.48047C6.93457 13 6.49414 12.55 6.49414 11.9963C6.49414 11.4426 6.93457 10.9927 7.48047 10.9927H7.49805ZM7.49805 4C8.2832 4.00342 8.90332 4.2356 9.33887 4.69092C9.77539 5.14795 9.99609 5.70508 10 6.34326C10 6.73682 9.91504 7.10083 9.75 7.42432C9.64355 7.63013 9.49609 7.84351 9.30762 8.06152C9.20996 8.17505 9.10156 8.28955 8.98242 8.40503C8.56348 8.81641 8.42383 9.03271 8.37988 9.1416C8.33496 9.25415 8.28223 9.48779 8.27344 9.96777C8.27148 10.0854 8.17773 10.1787 8.0625 10.1787H6.9541C6.83301 10.1753 6.73926 10.0786 6.74121 9.95898C6.74121 9.70752 6.76074 9.45801 6.79688 9.21021C6.83105 8.99927 6.87988 8.8252 6.94336 8.68628C7.05273 8.44897 7.23535 8.20459 7.5 7.94092C7.53613 7.90356 7.57715 7.86621 7.61914 7.82788L7.63965 7.80737C7.93652 7.53491 8.16602 7.28003 8.32129 7.0498C8.46289 6.84058 8.53223 6.62451 8.53223 6.38892C8.53223 6.10767 8.44434 5.88257 8.2627 5.69629C8.08301 5.51343 7.83301 5.42383 7.49805 5.42041H7.48047C7.1543 5.42041 6.91406 5.50635 6.74805 5.68579C6.56152 5.88623 6.42383 6.09717 6.33691 6.31152C6.33594 6.31323 6.33594 6.31689 6.33398 6.3186C6.28711 6.42749 6.16309 6.4751 6.05566 6.42749L5.125 6.01099C5.02344 5.96533 4.97461 5.84741 5.0127 5.74023C5.09961 5.50122 5.21973 5.27612 5.36816 5.07227C5.52246 4.86304 5.70215 4.67505 5.9043 4.51318C6.3291 4.17236 6.85938 4 7.48047 4H7.49805Z" fill="white"/>
</svg>